<svg width="1511" height="595" viewBox="0 0 1511 595" fill="none" xmlns="http://www.w3.org/2000/svg">
<mask id="mask0_535_1016" style="mask-type:alpha" maskUnits="userSpaceOnUse" x="0" y="0" width="1511" height="594">
<rect width="1511" height="594" fill="url(#paint0_linear_535_1016)"/>
</mask>
<g mask="url(#mask0_535_1016)">
<rect y="271" width="1512" height="323" fill="url(#paint1_linear_535_1016)"/>
<path d="M989.29 272.736L1010.23 282.81H964L946.88 272.736H989.29Z" stroke="white" stroke-opacity="0.1" stroke-miterlimit="10"/>
<path d="M1010.23 282.811L1035.3 294.874H984.53L964 282.811H1010.23Z" stroke="white" stroke-opacity="0.1" stroke-miterlimit="10"/>
<path d="M1035.3 294.874L1065.86 309.574H1009.53L984.53 294.874H1035.3Z" stroke="white" stroke-opacity="0.1" stroke-miterlimit="10"/>
<path d="M1065.86 309.575L1103.93 327.887H1040.67L1009.53 309.575H1065.86Z" stroke="white" stroke-opacity="0.1" stroke-miterlimit="10"/>
<path d="M1103.93 327.887L1152.66 351.332H1080.54L1040.67 327.887H1103.93Z" stroke="white" stroke-opacity="0.1" stroke-miterlimit="10"/>
<path d="M1152.66 351.332L1217.26 382.427H1133.4L1080.54 351.332H1152.66Z" stroke="white" stroke-opacity="0.1" stroke-miterlimit="10"/>
<path d="M1217.26 382.416L1307 425.593H1206.83L1133.4 382.416H1217.26Z" stroke="white" stroke-opacity="0.1" stroke-miterlimit="10"/>
<path d="M1307 425.593L1440.11 489.63H1315.74L1206.83 425.593H1307Z" stroke="white" stroke-opacity="0.1" stroke-miterlimit="10"/>
<path d="M1440.12 489.63L1658 594.465H1494L1315.74 489.63H1440.12Z" stroke="white" stroke-opacity="0.1" stroke-miterlimit="10"/>
<path d="M946.88 272.736L964 282.81H917.78L904.47 272.736H946.88Z" stroke="white" stroke-opacity="0.1" stroke-miterlimit="10"/>
<path d="M964 282.811L984.52 294.874H933.74L917.74 282.811H964Z" stroke="white" stroke-opacity="0.1" stroke-miterlimit="10"/>
<path d="M984.53 294.874L1009.53 309.574H953.19L933.75 294.874H984.53Z" stroke="white" stroke-opacity="0.1" stroke-miterlimit="10"/>
<path d="M1009.53 309.575L1040.67 327.887H977.42L953.19 309.575H1009.53Z" stroke="white" stroke-opacity="0.1" stroke-miterlimit="10"/>
<path d="M1040.67 327.887L1080.54 351.332H1008.43L977.43 327.887H1040.67Z" stroke="white" stroke-opacity="0.1" stroke-miterlimit="10"/>
<path d="M1080.54 351.332L1133.4 382.427H1049.54L1008.43 351.332H1080.54Z" stroke="white" stroke-opacity="0.1" stroke-miterlimit="10"/>
<path d="M1133.4 382.416L1206.83 425.593H1106.65L1049.54 382.416H1133.4Z" stroke="white" stroke-opacity="0.1" stroke-miterlimit="10"/>
<path d="M1206.83 425.593L1315.74 489.63H1191.36L1106.65 425.593H1206.83Z" stroke="white" stroke-opacity="0.1" stroke-miterlimit="10"/>
<path d="M1315.74 489.63L1494 594.465H1330L1191.36 489.63H1315.74Z" stroke="white" stroke-opacity="0.1" stroke-miterlimit="10"/>
<path d="M904.47 272.736L917.79 282.81H871.57L862.05 272.736H904.47Z" stroke="white" stroke-opacity="0.1" stroke-miterlimit="10"/>
<path d="M917.79 282.811L933.79 294.874H883L871.6 282.811H917.79Z" stroke="white" stroke-opacity="0.1" stroke-miterlimit="10"/>
<path d="M933.75 294.874L953.19 309.574H896.86L883 294.874H933.75Z" stroke="white" stroke-opacity="0.1" stroke-miterlimit="10"/>
<path d="M953.19 309.575L977.42 327.887H914.16L896.86 309.575H953.19Z" stroke="white" stroke-opacity="0.1" stroke-miterlimit="10"/>
<path d="M977.42 327.887L1008.42 351.332H936.3L914.15 327.887H977.42Z" stroke="white" stroke-opacity="0.1" stroke-miterlimit="10"/>
<path d="M1008.43 351.332L1049.54 382.427H965.68L936.31 351.332H1008.43Z" stroke="white" stroke-opacity="0.1" stroke-miterlimit="10"/>
<path d="M1049.54 382.416L1106.65 425.593H1006.47L965.68 382.416H1049.54Z" stroke="white" stroke-opacity="0.1" stroke-miterlimit="10"/>
<path d="M1106.65 425.593L1191.36 489.63H1067L1006.49 425.593H1106.65Z" stroke="white" stroke-opacity="0.1" stroke-miterlimit="10"/>
<path d="M1191.36 489.63L1330 594.465H1166L1067 489.63H1191.36Z" stroke="white" stroke-opacity="0.1" stroke-miterlimit="10"/>
<path d="M862.05 272.736L871.57 282.81H825.35L819.64 272.736H862.05Z" stroke="white" stroke-opacity="0.1" stroke-miterlimit="10"/>
<path d="M871.57 282.811L882.97 294.874H832.19L825.35 282.811H871.57Z" stroke="white" stroke-opacity="0.1" stroke-miterlimit="10"/>
<path d="M883 294.874L896.89 309.574H840.52L832.19 294.874H883Z" stroke="white" stroke-opacity="0.1" stroke-miterlimit="10"/>
<path d="M896.86 309.575L914.16 327.887H850.91L840.52 309.575H896.86Z" stroke="white" stroke-opacity="0.1" stroke-miterlimit="10"/>
<path d="M914.16 327.887L936.31 351.332H864.2L850.91 327.887H914.16Z" stroke="white" stroke-opacity="0.1" stroke-miterlimit="10"/>
<path d="M936.31 351.332L965.68 382.427H881.82L864.2 351.332H936.31Z" stroke="white" stroke-opacity="0.1" stroke-miterlimit="10"/>
<path d="M965.68 382.416L1006.47 425.593H906.29L881.82 382.416H965.68Z" stroke="white" stroke-opacity="0.1" stroke-miterlimit="10"/>
<path d="M1006.47 425.593L1067 489.63H942.59L906.29 425.593H1006.47Z" stroke="white" stroke-opacity="0.1" stroke-miterlimit="10"/>
<path d="M1067 489.63L1166 594.465H1002L942.57 489.63H1067Z" stroke="white" stroke-opacity="0.1" stroke-miterlimit="10"/>
<path d="M819.64 272.736L825.35 282.81H779.13L777.23 272.736H819.64Z" stroke="white" stroke-opacity="0.1" stroke-miterlimit="10"/>
<path d="M825.35 282.811L832.19 294.874H781.41L779.13 282.811H825.35Z" stroke="white" stroke-opacity="0.1" stroke-miterlimit="10"/>
<path d="M832.19 294.874L840.52 309.574H784.19L781.41 294.874H832.19Z" stroke="white" stroke-opacity="0.1" stroke-miterlimit="10"/>
<path d="M840.52 309.575L850.91 327.887H787.65L784.19 309.575H840.52Z" stroke="white" stroke-opacity="0.1" stroke-miterlimit="10"/>
<path d="M850.91 327.887L864.2 351.332H792.08L787.65 327.887H850.91Z" stroke="white" stroke-opacity="0.1" stroke-miterlimit="10"/>
<path d="M777.23 272.736L779.13 282.81H732.91L734.82 272.736H777.23Z" stroke="white" stroke-opacity="0.1" stroke-miterlimit="10"/>
<path d="M779.13 282.811L781.41 294.874H730.63L732.91 282.811H779.13Z" stroke="white" stroke-opacity="0.1" stroke-miterlimit="10"/>
<path d="M781.41 294.874L784.19 309.574H727.86L730.63 294.874H781.41Z" stroke="white" stroke-opacity="0.1" stroke-miterlimit="10"/>
<path d="M784.19 309.575L787.65 327.887H724.4L727.86 309.575H784.19Z" stroke="white" stroke-opacity="0.1" stroke-miterlimit="10"/>
<path d="M787.65 327.887L792.08 351.332H720L724.43 327.887H787.65Z" stroke="white" stroke-opacity="0.1" stroke-miterlimit="10"/>
<path d="M734.82 272.736L732.91 282.81H686.69L692.4 272.736H734.82Z" stroke="white" stroke-opacity="0.1" stroke-miterlimit="10"/>
<path d="M732.91 282.811L730.63 294.874H679.86L686.69 282.811H732.91Z" stroke="white" stroke-opacity="0.1" stroke-miterlimit="10"/>
<path d="M730.63 294.874L727.86 309.574H671.52L679.86 294.874H730.63Z" stroke="white" stroke-opacity="0.1" stroke-miterlimit="10"/>
<path d="M727.86 309.575L724.4 327.887H661.14L671.52 309.575H727.86Z" stroke="white" stroke-opacity="0.1" stroke-miterlimit="10"/>
<path d="M724.4 327.887L720 351.332H647.85L661.14 327.887H724.4Z" stroke="white" stroke-opacity="0.1" stroke-miterlimit="10"/>
<g opacity="0.85">
<path d="M864.2 351L881.82 382.078H798L792.13 351H864.2Z" fill="url(#paint2_linear_535_1016)"/>
<path d="M881.82 382.067L906.29 425.22H806.11L798 382.067H881.82Z" fill="url(#paint3_linear_535_1016)"/>
<path d="M906.29 425.22L942.59 489.222H818.21L806.11 425.22H906.29Z" fill="url(#paint4_linear_535_1016)"/>
<path d="M942.59 489.222L1002 594H838L818.21 489.222H942.59Z" fill="url(#paint5_linear_535_1016)"/>
<path d="M792.08 351L797.95 382.078H714.09L719.97 351H792.08Z" fill="url(#paint6_linear_535_1016)"/>
<path d="M798 382.067L806.16 425.22H705.93L714.09 382.067H798Z" fill="url(#paint7_linear_535_1016)"/>
<path d="M806.11 425.22L818.21 489.222H693.83L705.93 425.22H806.11Z" fill="url(#paint8_linear_535_1016)"/>
<path d="M818.21 489.222L838 594H674L693.81 489.222L818.21 489.222Z" fill="url(#paint9_linear_535_1016)"/>
<path d="M720 351L714.12 382.078H630.23L647.85 351H720Z" fill="url(#paint10_linear_535_1016)"/>
<path d="M714.09 382.067L705.93 425.22H605.75L630.23 382.067H714.09Z" fill="url(#paint11_linear_535_1016)"/>
<path d="M705.93 425.22L693.83 489.222H569.45L605.75 425.22H705.93Z" fill="url(#paint12_linear_535_1016)"/>
<path d="M693.83 489.222L674 594H510L569.43 489.222L693.83 489.222Z" fill="url(#paint13_linear_535_1016)"/>
<path d="M906.29 425.22L881.82 382.067H798M906.29 425.22H806.11M906.29 425.22L942.59 489.222M806.11 425.22L798 382.067M806.11 425.22L818.21 489.222M806.11 425.22H705.93M798 382.067L806.16 425.22H705.93M798 382.067H714.09M942.59 489.222H818.21M942.59 489.222L1002 594H838M818.21 489.222L838 594M818.21 489.222H693.83M818.21 489.222L693.81 489.222L674 594M838 594H674M705.93 425.22L714.09 382.067M705.93 425.22L693.83 489.222M705.93 425.22H605.75M714.09 382.067H630.23L605.75 425.22M693.83 489.222H569.45L605.75 425.22M693.83 489.222L674 594M693.83 489.222L569.43 489.222L510 594H674M864.2 351L881.82 382.078H798L792.13 351H864.2ZM792.08 351L797.95 382.078H714.09L719.97 351H792.08ZM720 351L714.12 382.078H630.23L647.85 351H720Z" stroke="white" stroke-opacity="0.1" stroke-miterlimit="10"/>
</g>
<path d="M692.4 272.736L686.69 282.81H640.47L650 272.736H692.4Z" stroke="white" stroke-opacity="0.1" stroke-miterlimit="10"/>
<path d="M686.69 282.811L679.86 294.874H629.08L640.47 282.811H686.69Z" stroke="white" stroke-opacity="0.1" stroke-miterlimit="10"/>
<path d="M679.86 294.874L671.52 309.574H615.19L629.08 294.874H679.86Z" stroke="white" stroke-opacity="0.1" stroke-miterlimit="10"/>
<path d="M671.52 309.575L661.14 327.887H597.88L615.19 309.575H671.52Z" stroke="white" stroke-opacity="0.1" stroke-miterlimit="10"/>
<path d="M661.14 327.887L647.85 351.332H575.73L597.88 327.887H661.14Z" stroke="white" stroke-opacity="0.1" stroke-miterlimit="10"/>
<path d="M647.85 351.332L630.23 382.427H546.37L575.73 351.332H647.85Z" stroke="white" stroke-opacity="0.1" stroke-miterlimit="10"/>
<path d="M630.23 382.416L605.75 425.593H505.57L546.37 382.416H630.23Z" stroke="white" stroke-opacity="0.1" stroke-miterlimit="10"/>
<path d="M605.75 425.593L569.45 489.63H445.07L505.57 425.593H605.75Z" stroke="white" stroke-opacity="0.1" stroke-miterlimit="10"/>
<path d="M569.45 489.63L510 594.465H346L445.05 489.63H569.45Z" stroke="white" stroke-opacity="0.1" stroke-miterlimit="10"/>
<path d="M650 272.736L640.48 282.81H594.25L607.58 272.736H650Z" stroke="white" stroke-opacity="0.1" stroke-miterlimit="10"/>
<path d="M640.47 282.811L629.08 294.874H578.3L594.3 282.811H640.47Z" stroke="white" stroke-opacity="0.1" stroke-miterlimit="10"/>
<path d="M629.08 294.874L615.19 309.574H558.85L578.3 294.874H629.08Z" stroke="white" stroke-opacity="0.1" stroke-miterlimit="10"/>
<path d="M615.19 309.575L597.88 327.887H534.63L558.85 309.575H615.19Z" stroke="white" stroke-opacity="0.1" stroke-miterlimit="10"/>
<path d="M597.88 327.887L575.73 351.332H503.62L534.62 327.887H597.88Z" stroke="white" stroke-opacity="0.1" stroke-miterlimit="10"/>
<path d="M575.73 351.332L546.37 382.427H462.51L503.62 351.332H575.73Z" stroke="white" stroke-opacity="0.1" stroke-miterlimit="10"/>
<path d="M546.37 382.416L505.57 425.593H405.4L462.51 382.416H546.37Z" stroke="white" stroke-opacity="0.1" stroke-miterlimit="10"/>
<path d="M505.57 425.593L445.07 489.63H320.69L405.4 425.593H505.57Z" stroke="white" stroke-opacity="0.1" stroke-miterlimit="10"/>
<path d="M445.07 489.63L346 594.465H182L320.69 489.63H445.07Z" stroke="white" stroke-opacity="0.1" stroke-miterlimit="10"/>
<path d="M607.58 272.736L594.25 282.81H548L565.17 272.736H607.58Z" stroke="white" stroke-opacity="0.1" stroke-miterlimit="10"/>
<path d="M594.25 282.811L578.25 294.874H527.52L548 282.811H594.25Z" stroke="white" stroke-opacity="0.1" stroke-miterlimit="10"/>
<path d="M578.3 294.874L558.85 309.574H502.52L527.52 294.874H578.3Z" stroke="white" stroke-opacity="0.1" stroke-miterlimit="10"/>
<path d="M558.85 309.575L534.63 327.887H471.37L502.52 309.575H558.85Z" stroke="white" stroke-opacity="0.1" stroke-miterlimit="10"/>
<path d="M534.63 327.887L503.63 351.332H431.5L471.37 327.887H534.63Z" stroke="white" stroke-opacity="0.1" stroke-miterlimit="10"/>
<path d="M503.62 351.332L462.51 382.427H378.64L431.5 351.332H503.62Z" stroke="white" stroke-opacity="0.1" stroke-miterlimit="10"/>
<path d="M462.51 382.416L405.4 425.593H305.22L378.64 382.416H462.51Z" stroke="white" stroke-opacity="0.1" stroke-miterlimit="10"/>
<path d="M405.4 425.593L320.69 489.63H196.31L305.22 425.593H405.4Z" stroke="white" stroke-opacity="0.1" stroke-miterlimit="10"/>
<path d="M320.69 489.63L182 594.465H18L196.31 489.63H320.69Z" stroke="white" stroke-opacity="0.1" stroke-miterlimit="10"/>
<path d="M565.17 272.736L548 282.81H501.81L522.75 272.736H565.17Z" stroke="white" stroke-opacity="0.1" stroke-miterlimit="10"/>
<path d="M548 282.811L527.49 294.874H476.74L501.81 282.811H548Z" stroke="white" stroke-opacity="0.1" stroke-miterlimit="10"/>
<path d="M527.52 294.874L502.52 309.574H446.18L476.74 294.874H527.52Z" stroke="white" stroke-opacity="0.1" stroke-miterlimit="10"/>
<path d="M502.52 309.575L471.37 327.887H408.12L446.18 309.575H502.52Z" stroke="white" stroke-opacity="0.1" stroke-miterlimit="10"/>
<path d="M471.37 327.887L431.5 351.332H359.39L408.12 327.887H471.37Z" stroke="white" stroke-opacity="0.1" stroke-miterlimit="10"/>
<path d="M431.5 351.332L378.64 382.427H294.78L359.39 351.332H431.5Z" stroke="white" stroke-opacity="0.1" stroke-miterlimit="10"/>
<path d="M378.64 382.416L305.22 425.593H205L294.74 382.416H378.64Z" stroke="white" stroke-opacity="0.1" stroke-miterlimit="10"/>
<path d="M305.22 425.593L196.31 489.63H71.9299L205 425.593H305.22Z" stroke="white" stroke-opacity="0.1" stroke-miterlimit="10"/>
<path d="M196.31 489.63L18 594.465H-146L71.93 489.63H196.31Z" stroke="white" stroke-opacity="0.1" stroke-miterlimit="10"/>
<g opacity="0.85" filter="url(#filter0_iiii_535_1016)">
<rect x="648" y="98" width="216" height="253" fill="#5B21B6" fill-opacity="0.13"/>
</g>
</g>
<defs>
<filter id="filter0_iiii_535_1016" x="648" y="22" width="216" height="329" filterUnits="userSpaceOnUse" color-interpolation-filters="sRGB">
<feFlood flood-opacity="0" result="BackgroundImageFix"/>
<feBlend mode="normal" in="SourceGraphic" in2="BackgroundImageFix" result="shape"/>
<feColorMatrix in="SourceAlpha" type="matrix" values="0 0 0 0 0 0 0 0 0 0 0 0 0 0 0 0 0 0 127 0" result="hardAlpha"/>
<feMorphology radius="30" operator="erode" in="SourceAlpha" result="effect1_innerShadow_535_1016"/>
<feOffset dy="-76"/>
<feGaussianBlur stdDeviation="37"/>
<feComposite in2="hardAlpha" operator="arithmetic" k2="-1" k3="1"/>
<feColorMatrix type="matrix" values="0 0 0 0 0.317647 0 0 0 0 0.211765 0 0 0 0 0.564706 0 0 0 0.7 0"/>
<feBlend mode="normal" in2="shape" result="effect1_innerShadow_535_1016"/>
<feColorMatrix in="SourceAlpha" type="matrix" values="0 0 0 0 0 0 0 0 0 0 0 0 0 0 0 0 0 0 127 0" result="hardAlpha"/>
<feMorphology radius="40" operator="erode" in="SourceAlpha" result="effect2_innerShadow_535_1016"/>
<feOffset dy="-66"/>
<feGaussianBlur stdDeviation="42"/>
<feComposite in2="hardAlpha" operator="arithmetic" k2="-1" k3="1"/>
<feColorMatrix type="matrix" values="0 0 0 0 0.498039 0 0 0 0 0 0 0 0 0 1 0 0 0 0.55 0"/>
<feBlend mode="normal" in2="effect1_innerShadow_535_1016" result="effect2_innerShadow_535_1016"/>
<feColorMatrix in="SourceAlpha" type="matrix" values="0 0 0 0 0 0 0 0 0 0 0 0 0 0 0 0 0 0 127 0" result="hardAlpha"/>
<feOffset dy="-20"/>
<feGaussianBlur stdDeviation="28.5"/>
<feComposite in2="hardAlpha" operator="arithmetic" k2="-1" k3="1"/>
<feColorMatrix type="matrix" values="0 0 0 0 0.972549 0 0 0 0 0.827451 0 0 0 0 1 0 0 0 1 0"/>
<feBlend mode="normal" in2="effect2_innerShadow_535_1016" result="effect3_innerShadow_535_1016"/>
<feColorMatrix in="SourceAlpha" type="matrix" values="0 0 0 0 0 0 0 0 0 0 0 0 0 0 0 0 0 0 127 0" result="hardAlpha"/>
<feOffset dy="-5"/>
<feGaussianBlur stdDeviation="7"/>
<feComposite in2="hardAlpha" operator="arithmetic" k2="-1" k3="1"/>
<feColorMatrix type="matrix" values="0 0 0 0 1 0 0 0 0 1 0 0 0 0 1 0 0 0 0.8 0"/>
<feBlend mode="normal" in2="effect3_innerShadow_535_1016" result="effect4_innerShadow_535_1016"/>
</filter>
<linearGradient id="paint0_linear_535_1016" x1="755.5" y1="0" x2="755.5" y2="594" gradientUnits="userSpaceOnUse">
<stop offset="0.123846" stop-opacity="0"/>
<stop offset="0.549496"/>
<stop offset="0.770696"/>
<stop offset="1" stop-opacity="0"/>
</linearGradient>
<linearGradient id="paint1_linear_535_1016" x1="756" y1="329.5" x2="756" y2="173.5" gradientUnits="userSpaceOnUse">
<stop stop-color="#150727" stop-opacity="0"/>
<stop offset="0.227231" stop-color="#150727"/>
</linearGradient>
<linearGradient id="paint2_linear_535_1016" x1="756" y1="351.005" x2="756" y2="593.749" gradientUnits="userSpaceOnUse">
<stop stop-color="#FDF3FF"/>
<stop offset="0.0407214" stop-color="#F9D5FF"/>
<stop offset="0.243839" stop-color="#7F00FF"/>
<stop offset="1" stop-color="#513690" stop-opacity="0"/>
</linearGradient>
<linearGradient id="paint3_linear_535_1016" x1="756" y1="351.005" x2="756" y2="593.749" gradientUnits="userSpaceOnUse">
<stop stop-color="#FDF3FF"/>
<stop offset="0.0407214" stop-color="#F9D5FF"/>
<stop offset="0.243839" stop-color="#7F00FF"/>
<stop offset="1" stop-color="#513690" stop-opacity="0"/>
</linearGradient>
<linearGradient id="paint4_linear_535_1016" x1="756" y1="351.005" x2="756" y2="593.749" gradientUnits="userSpaceOnUse">
<stop stop-color="#FDF3FF"/>
<stop offset="0.0407214" stop-color="#F9D5FF"/>
<stop offset="0.243839" stop-color="#7F00FF"/>
<stop offset="1" stop-color="#513690" stop-opacity="0"/>
</linearGradient>
<linearGradient id="paint5_linear_535_1016" x1="756" y1="351.005" x2="756" y2="593.749" gradientUnits="userSpaceOnUse">
<stop stop-color="#FDF3FF"/>
<stop offset="0.0407214" stop-color="#F9D5FF"/>
<stop offset="0.243839" stop-color="#7F00FF"/>
<stop offset="1" stop-color="#513690" stop-opacity="0"/>
</linearGradient>
<linearGradient id="paint6_linear_535_1016" x1="756" y1="351.005" x2="756" y2="593.749" gradientUnits="userSpaceOnUse">
<stop stop-color="#FDF3FF"/>
<stop offset="0.0407214" stop-color="#F9D5FF"/>
<stop offset="0.243839" stop-color="#7F00FF"/>
<stop offset="1" stop-color="#513690" stop-opacity="0"/>
</linearGradient>
<linearGradient id="paint7_linear_535_1016" x1="756" y1="351.005" x2="756" y2="593.749" gradientUnits="userSpaceOnUse">
<stop stop-color="#FDF3FF"/>
<stop offset="0.0407214" stop-color="#F9D5FF"/>
<stop offset="0.243839" stop-color="#7F00FF"/>
<stop offset="1" stop-color="#513690" stop-opacity="0"/>
</linearGradient>
<linearGradient id="paint8_linear_535_1016" x1="756" y1="351.005" x2="756" y2="593.749" gradientUnits="userSpaceOnUse">
<stop stop-color="#FDF3FF"/>
<stop offset="0.0407214" stop-color="#F9D5FF"/>
<stop offset="0.243839" stop-color="#7F00FF"/>
<stop offset="1" stop-color="#513690" stop-opacity="0"/>
</linearGradient>
<linearGradient id="paint9_linear_535_1016" x1="756" y1="351.005" x2="756" y2="593.749" gradientUnits="userSpaceOnUse">
<stop stop-color="#FDF3FF"/>
<stop offset="0.0407214" stop-color="#F9D5FF"/>
<stop offset="0.243839" stop-color="#7F00FF"/>
<stop offset="1" stop-color="#513690" stop-opacity="0"/>
</linearGradient>
<linearGradient id="paint10_linear_535_1016" x1="756" y1="351.005" x2="756" y2="593.749" gradientUnits="userSpaceOnUse">
<stop stop-color="#FDF3FF"/>
<stop offset="0.0407214" stop-color="#F9D5FF"/>
<stop offset="0.243839" stop-color="#7F00FF"/>
<stop offset="1" stop-color="#513690" stop-opacity="0"/>
</linearGradient>
<linearGradient id="paint11_linear_535_1016" x1="756" y1="351.005" x2="756" y2="593.749" gradientUnits="userSpaceOnUse">
<stop stop-color="#FDF3FF"/>
<stop offset="0.0407214" stop-color="#F9D5FF"/>
<stop offset="0.243839" stop-color="#7F00FF"/>
<stop offset="1" stop-color="#513690" stop-opacity="0"/>
</linearGradient>
<linearGradient id="paint12_linear_535_1016" x1="756" y1="351.005" x2="756" y2="593.749" gradientUnits="userSpaceOnUse">
<stop stop-color="#FDF3FF"/>
<stop offset="0.0407214" stop-color="#F9D5FF"/>
<stop offset="0.243839" stop-color="#7F00FF"/>
<stop offset="1" stop-color="#513690" stop-opacity="0"/>
</linearGradient>
<linearGradient id="paint13_linear_535_1016" x1="756" y1="351.005" x2="756" y2="593.749" gradientUnits="userSpaceOnUse">
<stop stop-color="#FDF3FF"/>
<stop offset="0.0407214" stop-color="#F9D5FF"/>
<stop offset="0.243839" stop-color="#7F00FF"/>
<stop offset="1" stop-color="#513690" stop-opacity="0"/>
</linearGradient>
</defs>
</svg>
