<svg width="131" height="44" viewBox="0 0 131 44" fill="none" xmlns="http://www.w3.org/2000/svg">
<g clip-path="url(#clip0_595_926)">
<path d="M21.511 43.0219C33.3912 43.0219 43.0219 33.3912 43.0219 21.511C43.0219 9.63079 33.3912 0 21.511 0C9.63079 0 0 9.63079 0 21.511C0 33.3912 9.63079 43.0219 21.511 43.0219Z" fill="url(#paint0_radial_595_926)"/>
<path d="M21.511 16.3627V21.1748C21.511 21.4567 21.8135 21.6325 22.0592 21.4955L26.1653 19.1683C26.2791 19.1036 26.4188 19.1036 26.5325 19.1709L30.4913 21.4903C30.7318 21.6325 30.7344 21.979 30.4913 22.1238L22.3074 27.0057C22.0824 27.1402 22.0669 27.4634 22.2789 27.6186L25.8344 30.2147C25.9507 30.3 26.1059 30.3077 26.2326 30.2379L36.1619 24.6527C36.2783 24.588 36.3481 24.4639 36.3481 24.332V18.9537C36.3481 18.8218 36.2757 18.6977 36.1619 18.633L26.5403 13.2003C26.4213 13.1331 26.2765 13.1383 26.1628 13.2107L21.6816 16.0498C21.5756 16.1171 21.511 16.2334 21.511 16.3601V16.3627Z" fill="url(#paint1_linear_595_926)" stroke="url(#paint2_linear_595_926)" stroke-width="0.698156"/>
<path d="M6.67128 24.3372V19.1088C6.67128 18.9821 6.73851 18.8632 6.84711 18.7959L16.161 13.0529C16.2774 12.9805 16.4248 12.9805 16.5411 13.0504L20.9731 15.6827C21.2136 15.8249 21.2136 16.174 20.9731 16.3162L12.3522 21.3455C12.1143 21.4825 12.1066 21.8239 12.3393 21.9712L16.1662 24.4303C16.28 24.5027 16.4274 24.5079 16.5463 24.4407L20.968 21.9531C21.2136 21.8161 21.5162 21.9919 21.5162 22.2738V27.0755C21.5162 27.2074 21.4438 27.3315 21.3274 27.3962L16.536 30.0906C16.4222 30.1552 16.2826 30.1526 16.1714 30.088L6.85746 24.6553C6.74368 24.5906 6.67387 24.4691 6.67387 24.3372H6.67128Z" fill="url(#paint3_linear_595_926)" stroke="url(#paint4_linear_595_926)" stroke-width="0.698156"/>
<path d="M49.7682 14.3148H51.9351L57.1894 25.4465L62.8393 14.3148H64.1192L57.3187 27.6884H56.3025L49.7657 14.3148H49.7682ZM71.4059 27.6884C69.9243 27.6884 68.6495 27.4195 67.5816 26.879C66.5136 26.3386 65.6991 25.5603 65.1329 24.5441C64.5666 23.5149 64.2847 22.2841 64.2847 20.8516C64.2847 19.4191 64.5666 18.24 65.1329 17.2341C65.6991 16.2179 66.5136 15.4448 67.5816 14.9173C68.6495 14.3898 69.9243 14.126 71.4059 14.126C72.8876 14.126 74.1572 14.3898 75.2096 14.9173C76.2775 15.4448 77.092 16.2179 77.6583 17.2341C78.2246 18.2374 78.5064 19.445 78.5064 20.8516C78.5064 22.2583 78.2246 23.5149 77.6583 24.5441C77.092 25.5603 76.2775 26.3386 75.2096 26.879C74.1546 27.4195 72.8876 27.6884 71.4059 27.6884ZM71.4059 26.7834C73.0375 26.7834 74.2994 26.2688 75.1915 25.2397C76.0836 24.2105 76.5283 22.747 76.5283 20.8516C76.5283 18.9562 76.0836 17.5625 75.1915 16.5567C74.3123 15.5405 73.0505 15.0311 71.4059 15.0311C69.7614 15.0311 68.4918 15.5327 67.6023 16.5386C66.7102 17.5418 66.2654 18.9821 66.2654 20.8516C66.2654 22.7211 66.7102 24.2105 67.6023 25.2397C68.4943 26.2688 69.7614 26.7834 71.4059 26.7834ZM91.0008 24.7303C91.2905 25.4594 91.5542 26.0438 91.7921 26.4808C92.0429 26.9075 92.2886 27.1971 92.5264 27.3471V27.497H90.4734C90.2587 27.2591 90.0596 26.9566 89.8709 26.592C89.695 26.2274 89.5011 25.7646 89.2865 25.1983C88.9348 24.27 88.578 23.5537 88.2134 23.0521C87.8488 22.5375 87.404 22.1988 86.8766 22.0359H82.9022V27.497H80.9422V14.3122H86.3853C88.1927 14.3122 89.5864 14.6328 90.5664 15.2741C91.5594 15.9025 92.0533 16.8695 92.0533 18.1753C92.0533 20.1224 90.9543 21.3326 88.7564 21.8109C89.2348 22.0488 89.6485 22.4005 90.0002 22.8659C90.3518 23.3184 90.6854 23.939 90.9983 24.7303H91.0008ZM86.424 21.1516C88.8857 21.1516 90.1165 20.1586 90.1165 18.1753C90.1165 16.1921 88.8857 15.2172 86.424 15.2172H82.9022V21.1516H86.424ZM94.1503 14.3148H96.1284L104.152 24.5415V14.3148H105.81V27.4996H104.83L95.8078 16.0292V27.4996H94.1503V14.3148ZM122.992 24.0709H115.4L113.686 27.4996H112.367L119.224 14.126H120.241L126.702 27.4996H124.593L122.992 24.0709ZM122.558 23.1659L119.318 16.2334L115.853 23.1659H122.558ZM129.043 14.3122H131.003V27.497H129.043V14.3122Z" fill="white"/>
</g>
<defs>
<radialGradient id="paint0_radial_595_926" cx="0" cy="0" r="1" gradientUnits="userSpaceOnUse" gradientTransform="translate(21.6118 21.4825) rotate(90) scale(21.6532)">
<stop offset="0.76" stop-color="#330B5C" stop-opacity="0"/>
<stop offset="1" stop-color="#5403A5"/>
</radialGradient>
<linearGradient id="paint1_linear_595_926" x1="28.9321" y1="13.0943" x2="28.9321" y2="30.3543" gradientUnits="userSpaceOnUse">
<stop offset="0.3" stop-color="#710DEF"/>
<stop offset="1" stop-color="#3E0968"/>
</linearGradient>
<linearGradient id="paint2_linear_595_926" x1="28.9321" y1="12.9314" x2="28.9321" y2="30.5172" gradientUnits="userSpaceOnUse">
<stop stop-color="#591795"/>
<stop offset="1" stop-color="#893FDD"/>
</linearGradient>
<linearGradient id="paint3_linear_595_926" x1="14.0924" y1="12.934" x2="14.0924" y2="30.1914" gradientUnits="userSpaceOnUse">
<stop offset="0.3" stop-color="#710DEF"/>
<stop offset="1" stop-color="#3E0968"/>
</linearGradient>
<linearGradient id="paint4_linear_595_926" x1="14.0924" y1="12.7711" x2="14.0924" y2="30.3543" gradientUnits="userSpaceOnUse">
<stop stop-color="#591795"/>
<stop offset="1" stop-color="#893FDD"/>
</linearGradient>
<clipPath id="clip0_595_926">
<rect width="131" height="43.022" fill="white"/>
</clipPath>
</defs>
</svg>
