<svg width="14" height="15" viewBox="0 0 14 15" fill="none" xmlns="http://www.w3.org/2000/svg">
<g opacity="0.6">
<path d="M11.6845 6.07051L7.30953 10.4455C7.2689 10.4862 7.22065 10.5185 7.16754 10.5405C7.11442 10.5625 7.05749 10.5738 7 10.5738C6.9425 10.5738 6.88557 10.5625 6.83246 10.5405C6.77935 10.5185 6.7311 10.4862 6.69047 10.4455L2.31547 6.07051C2.23338 5.98842 2.18726 5.87707 2.18726 5.76098C2.18726 5.64488 2.23338 5.53354 2.31547 5.45145C2.39756 5.36935 2.5089 5.32323 2.625 5.32323C2.7411 5.32323 2.85244 5.36935 2.93453 5.45145L7 9.51746L11.0655 5.45145C11.1061 5.4108 11.1544 5.37855 11.2075 5.35656C11.2606 5.33456 11.3175 5.32323 11.375 5.32323C11.4325 5.32323 11.4894 5.33456 11.5425 5.35656C11.5956 5.37855 11.6439 5.4108 11.6845 5.45145C11.7252 5.49209 11.7574 5.54035 11.7794 5.59346C11.8014 5.64657 11.8127 5.70349 11.8127 5.76098C11.8127 5.81846 11.8014 5.87539 11.7794 5.92849C11.7574 5.9816 11.7252 6.02986 11.6845 6.07051Z" fill="white"/>
</g>
</svg>
