<svg width="16" height="17" viewBox="0 0 16 17" fill="none" xmlns="http://www.w3.org/2000/svg">
<path fill-rule="evenodd" clip-rule="evenodd" d="M12 3.16672L14.6667 5.83337V13.8334H1.33331L1.33328 6.56244C1.64884 7.04219 2.09 7.59703 2.66663 8.06759L2.66666 12.5H13.3333V6.16672L11.6667 4.50003L10.4249 4.50009C10.2549 4.16719 9.96916 3.67228 9.55822 3.16672H12ZM12 10.5V11.1667H4V10.5H12ZM12 8.50003V9.16672H8V8.53012C8.0169 8.52019 8.03372 8.51016 8.05047 8.50003H12ZM5.66666 1.83337C8.7 1.83337 10 5.16672 10 5.16672C10 5.16672 8.7 8.50003 5.66666 8.50003C2.63331 8.50003 1.33331 5.16672 1.33331 5.16672C1.33331 5.16672 2.63331 1.83337 5.66666 1.83337ZM5.66666 2.66672C3.75134 2.66672 2.63331 4.45003 2.28231 5.16672C2.63331 5.88337 3.75131 7.66672 5.66669 7.66672C7.582 7.66672 8.7 5.88337 9.051 5.16672C8.7 4.45003 7.582 2.66672 5.66666 2.66672ZM5.66666 3.70837C6.50428 3.70837 7.18331 4.36128 7.18331 5.16672C7.18331 5.97212 6.50428 6.62503 5.66666 6.62503C4.82903 6.62503 4.15 5.97212 4.15 5.16672C4.15 4.36128 4.82903 3.70837 5.66666 3.70837ZM5.66666 4.54172C5.30769 4.54172 5.01666 4.82153 5.01666 5.16672C5.01666 5.51191 5.30769 5.79172 5.66666 5.79172C6.02563 5.79172 6.31666 5.51187 6.31666 5.16672C6.31666 4.82156 6.02566 4.54172 5.66666 4.54172Z" fill="white"/>
</svg>
