<svg width="48" height="44" viewBox="0 0 48 44" fill="none" xmlns="http://www.w3.org/2000/svg">
<g clip-path="url(#clip0_890_21)">
<path d="M35.0361 38.5629L32.747 37.8412V35.3124H34.9191C36.9285 35.3124 38.5631 33.6963 38.5631 31.7098C38.5631 28.2535 37.2707 23.6209 35.1059 19.3176C33.8922 16.9049 31.4714 12.7773 28.1136 10.3063C29.0961 9.68677 29.8656 8.82989 30.3437 7.80277C31.085 6.21017 31.0755 4.35547 30.3178 2.71415C30.1724 2.39919 29.8406 2.19526 29.4736 2.19517C29.4735 2.19517 29.4734 2.19517 29.4733 2.19517C29.1065 2.19517 28.7746 2.39901 28.6291 2.71372C28.2372 3.56115 27.8548 3.75983 27.7875 3.7643C27.7562 3.75597 27.6077 3.65869 27.452 3.33462C27.4061 3.23966 27.3599 3.14177 27.3132 3.04294C26.8048 1.9664 26.2785 0.853256 25.1625 0.906108C24.0907 0.956811 23.547 2.1021 23.1194 3.33083C22.9562 3.79756 22.7723 3.98937 22.7015 4.03458C22.7006 4.03458 22.6996 4.03458 22.6988 4.03458C22.6279 3.99006 22.4428 3.79876 22.2796 3.33221C21.8515 2.10176 21.3076 0.956295 20.2354 0.906108C19.1196 0.854631 18.5929 1.96915 18.0852 3.04776C18.0393 3.1453 17.9938 3.24189 17.9492 3.3347C17.7926 3.65903 17.6434 3.75605 17.6178 3.76362C17.5441 3.76009 17.1617 3.56226 16.7694 2.71372C16.6238 2.39893 16.2921 2.19517 15.9251 2.19517C15.925 2.19517 15.9249 2.19517 15.9248 2.19517C15.5579 2.19526 15.2261 2.39927 15.0807 2.71415C14.3234 4.35444 14.3141 6.20854 15.0553 7.80087C15.534 8.82938 16.3047 9.68729 17.2886 10.3072C14.8969 12.0763 12.5693 14.9889 10.6215 18.6807C10.3969 19.1065 10.5842 19.6217 11.0397 19.8315C11.4952 20.0413 12.0465 19.8664 12.2712 19.4408C14.329 15.5402 16.8916 12.5005 19.3343 11.0521H26.0668C28.6487 12.5807 31.3248 15.8415 33.4413 20.0488C35.4966 24.1345 36.7236 28.4938 36.7236 31.7097C36.7236 32.7484 35.9141 33.5936 34.919 33.5936H10.4792C9.4856 33.5936 8.67729 32.7484 8.67729 31.7097C8.67729 30.2145 8.95145 28.4131 9.47033 26.5002C9.59504 26.0401 9.29706 25.5727 8.80476 25.456C8.31254 25.3398 7.81214 25.618 7.68734 26.078C7.12376 28.1561 6.83802 30.0509 6.83802 31.7097C6.83802 33.6963 8.47146 35.3123 10.4793 35.3123H12.654V37.8411L10.3649 38.5628C9.17622 37.5998 7.36959 37.6445 6.24179 38.6984C5.66901 39.2336 5.35402 39.945 5.35466 40.7015C5.3553 41.4568 5.67076 42.1663 6.24077 42.6974C6.81116 43.2321 7.57036 43.5269 8.37867 43.5275H8.38115C9.18974 43.5275 9.95013 43.2331 10.5223 42.6984C11.2827 41.9877 11.5518 40.9885 11.3308 40.0723L13.8678 39.2725C14.2417 39.1546 14.4935 38.827 14.4935 38.4582V35.3124H21.7809V37.5914C20.5592 37.9561 19.6719 39.0268 19.6719 40.2878C19.6719 41.8472 21.0306 43.1157 22.7006 43.1157C24.3692 43.1157 25.7266 41.8471 25.7266 40.2878C25.7266 39.027 24.8405 37.9565 23.6203 37.5916V35.3124H30.9078V38.4582C30.9078 38.827 31.1595 39.1547 31.5334 39.2725L34.067 40.0712C34.0177 40.2757 33.9914 40.4866 33.9916 40.7015C33.9923 41.4568 34.3077 42.1663 34.8788 42.6983C35.451 43.233 36.211 43.5274 37.019 43.5274C37.8271 43.5274 38.5871 43.233 39.1582 42.6992C39.7304 42.1663 40.0457 41.4568 40.0464 40.7015C40.047 39.9449 39.7319 39.2336 39.1581 38.6974C38.0293 37.6459 36.2232 37.6014 35.0361 38.5629ZM16.3517 5.05698C16.8366 5.40098 17.2931 5.48005 17.6028 5.48237H17.6176C18.452 5.48237 19.1834 4.9578 19.6263 4.04025C19.6734 3.94237 19.7208 3.84156 19.7687 3.73973C19.8681 3.52875 20.0166 3.2131 20.1585 2.95623C20.2588 3.15535 20.3847 3.44556 20.5306 3.86485C21.129 5.57535 22.2178 5.76218 22.7004 5.75358C23.181 5.76252 24.2692 5.57518 24.868 3.86356C25.0139 3.44427 25.1397 3.15415 25.24 2.95529C25.382 3.21147 25.5307 3.52643 25.6302 3.73689C25.6789 3.84001 25.7271 3.94219 25.7745 4.04025C26.2155 4.95746 26.9463 5.48245 27.781 5.48237H27.7944C28.1046 5.4803 28.5614 5.40133 29.0469 5.0568C29.0871 5.76493 28.9571 6.47194 28.6567 7.11733C28.319 7.84273 27.6103 8.80385 26.1546 9.33348H19.2459C17.789 8.80351 17.0797 7.84152 16.7417 7.11544C16.4418 6.47056 16.3118 5.76433 16.3517 5.05698ZM9.22156 41.4831C8.99679 41.6931 8.69835 41.8088 8.38106 41.8088C8.38078 41.8088 8.38042 41.8088 8.38005 41.8088C8.06368 41.8086 7.76662 41.6933 7.54148 41.4822C7.31763 41.2736 7.1943 40.996 7.19403 40.7002C7.19384 40.4033 7.31754 40.124 7.54249 39.9138C7.77343 39.698 8.0771 39.5902 8.38106 39.5902C8.68492 39.5902 8.98915 39.698 9.22128 39.9136C9.68333 40.3474 9.68351 41.0513 9.22156 41.4831ZM22.7005 41.397C22.0448 41.397 21.5112 40.8995 21.5112 40.2879C21.5112 39.675 22.0447 39.1764 22.7005 39.1764C23.3549 39.1764 23.8872 39.675 23.8872 40.2879C23.8872 40.8995 23.3549 41.397 22.7005 41.397ZM37.8585 41.4831C37.6338 41.6931 37.3356 41.8088 37.019 41.8088C36.7025 41.8088 36.4042 41.6931 36.1785 41.4821C35.9546 41.2736 35.8313 40.9959 35.831 40.7002C35.8308 40.4738 35.9032 40.258 36.037 40.0749C36.039 40.0724 36.041 40.0698 36.043 40.0673C36.0832 40.0133 36.128 39.9619 36.1787 39.9143C36.6422 39.4829 37.3962 39.4829 37.8585 39.9137C38.0835 40.1239 38.2073 40.4032 38.207 40.7001C38.2068 40.996 38.0834 41.2736 37.8585 41.4831Z" fill="#9E52FE"/>
<path d="M5.91983 11.5369C6.2579 11.5369 6.56884 11.3635 6.72933 11.0855L8.35054 8.2763L11.3565 6.76122C11.6541 6.61117 11.8396 6.32062 11.8395 6.00463C11.8395 5.68855 11.6537 5.39808 11.356 5.24829L8.35045 3.73562L6.72942 0.924344C6.56894 0.646164 6.25799 0.472656 5.91983 0.472656H5.91955C5.5812 0.472742 5.27025 0.646422 5.10995 0.924859L3.4915 3.73562L0.48386 5.24803C0.185975 5.39782 0.000107261 5.68838 1.52929e-05 6.00454C-7.66753e-05 6.32062 0.185607 6.61134 0.483308 6.76131L3.4914 8.27621L5.10995 11.085C5.27035 11.3633 5.5812 11.5369 5.91946 11.5369H5.91983ZM4.98028 7.23448C4.89502 7.08649 4.76516 6.96515 4.60689 6.8854L2.85931 6.00531L4.60634 5.12677C4.76498 5.04702 4.89502 4.92551 4.98037 4.77727L5.92038 3.14471L6.86204 4.7777C6.94739 4.92568 7.07725 5.04694 7.23561 5.12669L8.98145 6.00531L7.23497 6.88557C7.07697 6.96524 6.94739 7.08632 6.86213 7.23405L5.92038 8.86591L4.98028 7.23448Z" fill="#9E52FE"/>
<path d="M46.6044 13.4998L43.596 11.9847L41.9749 9.17555C41.8144 8.89746 41.5035 8.72412 41.1654 8.72412C41.1653 8.72412 41.1652 8.72412 41.1651 8.72412C40.8268 8.72421 40.516 8.8978 40.3556 9.17607L38.737 11.9848L35.7289 13.4998C35.4311 13.6497 35.2455 13.9404 35.2455 14.2565C35.2456 14.5727 35.4315 14.8632 35.7294 15.013L38.737 16.5255L40.3554 19.3363C40.5157 19.6147 40.8266 19.7884 41.165 19.7885H41.1653C41.5035 19.7885 41.8145 19.615 41.9749 19.3368L43.5959 16.5257L46.6038 15.0131C46.9017 14.8633 47.0876 14.5728 47.0876 14.2566C47.0878 13.9404 46.9021 13.6497 46.6044 13.4998ZM42.4814 15.1343C42.323 15.214 42.193 15.3353 42.1077 15.4834L41.166 17.1163L40.226 15.4838C40.1406 15.3356 40.0106 15.214 39.852 15.1342L38.1049 14.2557L39.8524 13.3756C40.0108 13.2958 40.1406 13.1745 40.2259 13.0265L41.166 11.3951L42.1078 13.0269C42.193 13.1747 42.3228 13.2958 42.481 13.3755L44.2284 14.2556L42.4814 15.1343Z" fill="#9E52FE"/>
<path d="M8.98668 22.2287C8.75952 22.6532 8.94364 23.1694 9.39796 23.3817C9.53003 23.4434 9.67028 23.4726 9.80851 23.4726C10.1458 23.4726 10.4707 23.2985 10.6318 22.9974L10.6344 22.9925C10.8615 22.5679 10.6761 22.0542 10.2218 21.8419C9.76749 21.6296 9.21384 21.8041 8.98668 22.2287Z" fill="#9E52FE"/>
</g>
<defs>
<clipPath id="clip0_890_21">
<rect width="47.0877" height="44" fill="white"/>
</clipPath>
</defs>
</svg>
