<svg width="14" height="14" viewBox="0 0 14 14" fill="none" xmlns="http://www.w3.org/2000/svg">
<g opacity="0.6">
<path d="M11.6845 5.55953L7.30953 9.93453C7.2689 9.97521 7.22065 10.0075 7.16754 10.0295C7.11442 10.0515 7.05749 10.0628 7 10.0628C6.9425 10.0628 6.88557 10.0515 6.83246 10.0295C6.77935 10.0075 6.7311 9.97521 6.69047 9.93453L2.31547 5.55953C2.23338 5.47744 2.18726 5.3661 2.18726 5.25C2.18726 5.1339 2.23338 5.02256 2.31547 4.94047C2.39756 4.85837 2.5089 4.81226 2.625 4.81226C2.7411 4.81226 2.85244 4.85837 2.93453 4.94047L7 9.00648L11.0655 4.94047C11.1061 4.89982 11.1544 4.86758 11.2075 4.84558C11.2606 4.82358 11.3175 4.81226 11.375 4.81226C11.4325 4.81226 11.4894 4.82358 11.5425 4.84558C11.5956 4.86758 11.6439 4.89982 11.6845 4.94047C11.7252 4.98112 11.7574 5.02937 11.7794 5.08248C11.8014 5.13559 11.8127 5.19251 11.8127 5.25C11.8127 5.30748 11.8014 5.36441 11.7794 5.41752C11.7574 5.47063 11.7252 5.51888 11.6845 5.55953Z" fill="white"/>
</g>
</svg>
