<svg width="48" height="44" viewBox="0 0 48 44" fill="none" xmlns="http://www.w3.org/2000/svg">
<g clip-path="url(#clip0_890_600)">
<path d="M28.7421 14.7026C32.6026 14.7026 35.7323 11.5729 35.7323 7.71237C35.7323 3.85179 32.6026 0.722168 28.7421 0.722168C24.8815 0.722168 21.7519 3.85179 21.7519 7.71237C21.7519 11.5729 24.8815 14.7026 28.7421 14.7026Z" stroke="#9E52FE" stroke-width="1.44426" stroke-linecap="round" stroke-linejoin="round"/>
<path d="M42.6287 15.3381H4.65199V18.7899H42.6287V15.3381Z" stroke="#9E52FE" stroke-width="1.44426" stroke-linecap="round" stroke-linejoin="round"/>
<path d="M11.3607 36.9227H8.11836L6.16861 18.79H41.1124L39.1626 36.9227H35.9203" stroke="#9E52FE" stroke-width="1.44426" stroke-linecap="round" stroke-linejoin="round"/>
<path d="M26.9586 36.9229H20.3223" stroke="#9E52FE" stroke-width="1.44426" stroke-linecap="round" stroke-linejoin="round"/>
<path d="M15.8378 43.1329C18.4461 43.1329 20.5605 41.0185 20.5605 38.4102C20.5605 35.8019 18.4461 33.6875 15.8378 33.6875C13.2295 33.6875 11.1151 35.8019 11.1151 38.4102C11.1151 41.0185 13.2295 43.1329 15.8378 43.1329Z" stroke="#9E52FE" stroke-width="1.44426" stroke-linecap="round" stroke-linejoin="round"/>
<path d="M15.8377 39.7319C16.5675 39.7319 17.1592 39.1402 17.1592 38.4104C17.1592 37.6805 16.5675 37.0889 15.8377 37.0889C15.1078 37.0889 14.5162 37.6805 14.5162 38.4104C14.5162 39.1402 15.1078 39.7319 15.8377 39.7319Z" stroke="#9E52FE" stroke-width="1.44426" stroke-linecap="round" stroke-linejoin="round"/>
<path d="M31.4359 43.1329C34.0441 43.1329 36.1586 41.0185 36.1586 38.4102C36.1586 35.8019 34.0441 33.6875 31.4359 33.6875C28.8276 33.6875 26.7131 35.8019 26.7131 38.4102C26.7131 41.0185 28.8276 43.1329 31.4359 43.1329Z" stroke="#9E52FE" stroke-width="1.44426" stroke-linecap="round" stroke-linejoin="round"/>
<path d="M31.436 39.7319C32.1659 39.7319 32.7575 39.1402 32.7575 38.4104C32.7575 37.6805 32.1659 37.0889 31.436 37.0889C30.7062 37.0889 30.1145 37.6805 30.1145 38.4104C30.1145 39.1402 30.7062 39.7319 31.436 39.7319Z" stroke="#9E52FE" stroke-width="1.44426" stroke-linecap="round" stroke-linejoin="round"/>
<path d="M6.16833 15.338C6.16833 15.338 6.28388 9.8643 11.1221 9.66211C11.1221 9.66211 15.0505 9.45991 15.5343 11.4313C15.5343 11.4313 19.6144 9.32993 23.1022 11.8429" stroke="#9E52FE" stroke-width="1.44426" stroke-linecap="round" stroke-linejoin="round"/>
<path d="M35.0752 10.6585C35.0752 10.6585 37.9637 10.6368 38.5197 12.4927C38.5197 12.4927 42.152 13.0993 41.9426 15.3306" stroke="#9E52FE" stroke-width="1.44426" stroke-linecap="round" stroke-linejoin="round"/>
<path d="M10.5229 21.9309H37.7904" stroke="#9E52FE" stroke-width="1.44426" stroke-linecap="round" stroke-linejoin="round"/>
</g>
<defs>
<clipPath id="clip0_890_600">
<rect width="39.421" height="43.8548" fill="white" transform="translate(3.92975)"/>
</clipPath>
</defs>
</svg>
