<svg width="24" height="24" viewBox="0 0 24 24" fill="none" xmlns="http://www.w3.org/2000/svg">
<path d="M12 0V8.868L19.5 12.222L12 0Z" fill="#8FFCF3"/>
<path d="M12 0L4.5 12.222L12 8.868V0Z" fill="#CABCF8"/>
<path d="M12 17.97V24L19.5 13.62L12 17.97Z" fill="#CBA7F5"/>
<path d="M12 24V17.97L4.5 13.62L12 24Z" fill="#74A0F3"/>
<path d="M12 16.572L19.5 12.222L12 8.86801V16.572Z" fill="#CBA7F5"/>
<path d="M4.5 12.222L12 16.572V8.86801L4.5 12.222Z" fill="#74A0F3"/>
<path fill-rule="evenodd" clip-rule="evenodd" d="M12 16.572L4.5 12.222L12 0L19.5 12.222L12 16.572ZM4.998 11.868L11.88 0.654V8.808L4.998 11.868ZM4.896 12.174L11.88 9.072V16.224L4.896 12.174ZM12.12 9.072V16.224L19.098 12.174L12.12 9.072ZM12.12 8.808L19.002 11.868L12.12 0.654V8.808Z" fill="#202699"/>
<path fill-rule="evenodd" clip-rule="evenodd" d="M12 17.874L4.5 13.614L12 24L19.5 13.614L12 17.874ZM5.34 14.364L11.88 18.084V23.424L5.34 14.364ZM12.12 18.084V23.424L18.66 14.364L12.12 18.084Z" fill="#202699"/>
</svg>
