<svg width="13" height="13" viewBox="0 0 13 13" fill="none" xmlns="http://www.w3.org/2000/svg">
<path d="M6.5 9.5C6.59511 9.5 6.67444 9.468 6.738 9.404C6.80156 9.34 6.83333 9.26089 6.83333 9.16667V6.16667C6.83333 6.072 6.80133 5.99289 6.73733 5.92933C6.67333 5.86578 6.594 5.83378 6.49933 5.83333C6.40467 5.83289 6.32556 5.86489 6.262 5.92933C6.19844 5.99378 6.16667 6.07289 6.16667 6.16667V9.16667C6.16667 9.26133 6.19867 9.34044 6.26267 9.404C6.32667 9.46756 6.406 9.49955 6.50067 9.5M6.5 4.88467C6.61644 4.88467 6.714 4.84533 6.79267 4.76667C6.87133 4.688 6.91044 4.59067 6.91 4.47467C6.90956 4.35867 6.87022 4.26111 6.792 4.182C6.71378 4.10289 6.61644 4.06355 6.5 4.064C6.38356 4.06444 6.28622 4.10378 6.208 4.182C6.12978 4.26022 6.09044 4.35778 6.09 4.47467C6.08956 4.59155 6.12889 4.68889 6.208 4.76667C6.28711 4.84444 6.38444 4.88378 6.5 4.88467ZM6.502 12.5C5.67222 12.5 4.89222 12.3427 4.162 12.028C3.43178 11.7129 2.79644 11.2853 2.256 10.7453C1.71556 10.2053 1.28778 9.57067 0.972667 8.84133C0.657556 8.112 0.5 7.33222 0.5 6.502C0.5 5.67178 0.657556 4.89178 0.972667 4.162C1.28733 3.43178 1.71422 2.79644 2.25333 2.256C2.79244 1.71556 3.42733 1.28778 4.158 0.972667C4.88867 0.657556 5.66867 0.5 6.498 0.5C7.32733 0.5 8.10733 0.657556 8.838 0.972667C9.56822 1.28733 10.2036 1.71444 10.744 2.254C11.2844 2.79356 11.7122 3.42844 12.0273 4.15867C12.3424 4.88889 12.5 5.66867 12.5 6.498C12.5 7.32733 12.3427 8.10733 12.028 8.838C11.7133 9.56867 11.2858 10.204 10.7453 10.744C10.2049 11.284 9.57022 11.7118 8.84133 12.0273C8.11244 12.3429 7.33267 12.5004 6.502 12.5ZM6.5 11.8333C7.98889 11.8333 9.25 11.3167 10.2833 10.2833C11.3167 9.25 11.8333 7.98889 11.8333 6.5C11.8333 5.01111 11.3167 3.75 10.2833 2.71667C9.25 1.68333 7.98889 1.16667 6.5 1.16667C5.01111 1.16667 3.75 1.68333 2.71667 2.71667C1.68333 3.75 1.16667 5.01111 1.16667 6.5C1.16667 7.98889 1.68333 9.25 2.71667 10.2833C3.75 11.3167 5.01111 11.8333 6.5 11.8333Z" fill="white"/>
</svg>
