<svg width="48" height="44" viewBox="0 0 48 44" fill="none" xmlns="http://www.w3.org/2000/svg">
<g clip-path="url(#clip0_890_583)">
<mask id="mask0_890_583" style="mask-type:luminance" maskUnits="userSpaceOnUse" x="0" y="0" width="48" height="44">
<path d="M47.0877 0H0V44H47.0877V0Z" fill="white"/>
</mask>
<g mask="url(#mask0_890_583)">
<path d="M46.2588 33.9806C45.7229 33.4435 45.0105 33.1486 44.2539 33.1486C44.0651 33.1486 43.8787 33.167 43.6972 33.2026L42.9443 30.9621C42.818 30.5872 42.4673 30.334 42.0724 30.334H39.0939V26.3716H41.1687C41.5525 27.4875 42.6095 28.2926 43.8529 28.2926C45.4164 28.2926 46.688 27.018 46.688 25.4498C46.688 23.8815 45.4164 22.6082 43.8529 22.6082C42.6095 22.6082 41.5525 23.4132 41.1687 24.528H39.0939V20.5631H42.0724C42.4673 20.5631 42.818 20.3111 42.9443 19.935L43.6972 17.6969C43.8787 17.7326 44.0651 17.751 44.2539 17.751C45.0129 17.751 45.7254 17.4548 46.2588 16.9165C47.3636 15.8091 47.3637 14.0061 46.26 12.8999C45.7242 12.3604 45.0117 12.0642 44.2527 12.0642C43.4936 12.0642 42.7812 12.3604 42.2465 12.8987C41.2006 13.9471 41.1454 15.6174 42.0785 16.7321L41.4102 18.7195H39.0914V17.3159C39.0914 15.5449 37.9387 14.1032 36.5224 14.1032H35.425V11.9732C35.4262 5.4052 30.0957 0.0600586 23.5427 0.0600586C16.9896 0.0600586 11.6616 5.4052 11.6616 11.9745V14.1044H10.5641C9.14534 14.1044 7.99145 15.5461 7.99145 17.3172V18.7207H5.6763L5.008 16.7334C5.94117 15.6186 5.88599 13.9483 4.84123 12.9012C4.30536 12.3629 3.59292 12.0654 2.8351 12.0654C2.07728 12.0654 1.36361 12.3616 0.830191 12.8999C-0.274654 14.0086 -0.274654 15.8103 0.828964 16.9177C1.36483 17.456 2.07728 17.7535 2.83632 17.7535C3.02517 17.7535 3.21155 17.735 3.39304 17.6982L4.14595 19.9363C4.27225 20.3111 4.62296 20.5643 5.01781 20.5643H7.9939V24.5292H5.9191C5.53651 23.4132 4.47949 22.6094 3.23731 22.6094C1.67385 22.6094 0.402232 23.8852 0.402232 25.451C0.402232 27.0168 1.67385 28.2938 3.23731 28.2938C4.47826 28.2938 5.53528 27.4888 5.9191 26.3728H7.9939V30.3353H5.01781C4.62296 30.3353 4.27225 30.5872 4.14595 30.9633L3.39304 33.2039C3.21155 33.1682 3.02517 33.1498 2.83632 33.1498C2.07851 33.1498 1.36606 33.446 0.831417 33.9818C-0.274654 35.0905 -0.274654 36.8947 0.831417 38.0021C1.36729 38.5392 2.07973 38.8341 2.83632 38.8341C3.59292 38.8341 4.30659 38.5379 4.84246 38.0021C5.88844 36.9537 5.94362 35.2822 5.01168 34.1662L5.67875 32.1788H7.9939V33.5849C7.9939 35.3559 9.1478 36.7976 10.5666 36.7976H12.6634C14.5003 40.9973 18.6855 43.9384 23.5451 43.9384C28.4047 43.9384 32.5899 40.9973 34.4268 36.7976H36.5261C37.9424 36.7976 39.0951 35.3559 39.0951 33.5849V32.1788H41.4139L42.0822 34.1662C41.1491 35.2822 41.2042 36.9525 42.2514 38.0021C42.7861 38.5392 43.4998 38.8341 44.2576 38.8341C45.0154 38.8341 45.7278 38.5379 46.2625 38.0021C47.3686 36.8935 47.3686 35.0892 46.2625 33.9818L46.2588 33.9806ZM43.8517 24.4518C44.401 24.4518 44.8474 24.9004 44.8474 25.4498C44.8474 25.9992 44.401 26.4478 43.8517 26.4478C43.3023 26.4478 42.8535 25.9992 42.8535 25.4498C42.8535 24.9004 43.3011 24.4518 43.8517 24.4518ZM43.55 14.2015C43.7376 14.0122 43.9878 13.9078 44.2539 13.9078C44.52 13.9078 44.7689 14.0122 44.959 14.2027C45.3465 14.5911 45.3465 15.2253 44.9578 15.6149C44.7701 15.8042 44.52 15.9074 44.2551 15.9074C43.9903 15.9074 43.7389 15.803 43.5513 15.6149C43.5513 15.6149 43.5513 15.6149 43.55 15.6137C43.1625 15.2253 43.1625 14.5911 43.5513 14.2015H43.55ZM2.8351 15.9087C2.569 15.9087 2.32008 15.8042 2.13001 15.6149C1.74252 15.2265 1.74252 14.5924 2.13123 14.2027C2.31885 14.0135 2.569 13.9102 2.83387 13.9102C3.09874 13.9102 3.35012 14.0135 3.53896 14.204C3.92645 14.5924 3.92645 15.2265 3.53896 15.6149C3.53896 15.6149 3.53896 15.6149 3.53773 15.6161C3.35012 15.8054 3.09997 15.9087 2.83387 15.9087H2.8351ZM3.23608 26.449C2.68672 26.449 2.24037 26.0004 2.24037 25.451C2.24037 24.9016 2.68672 24.453 3.23608 24.453C3.78544 24.453 4.23179 24.9016 4.23179 25.451C4.23179 26.0004 3.78544 26.449 3.23608 26.449ZM3.54019 36.6981C3.35135 36.8873 3.10242 36.9906 2.8351 36.9906C2.56778 36.9906 2.31885 36.8873 2.13001 36.6981C1.74129 36.3084 1.74129 35.6743 2.13001 35.2846C2.31885 35.0954 2.56778 34.9921 2.8351 34.9921C3.10242 34.9921 3.35135 35.0954 3.54019 35.2846C3.92891 35.6743 3.92891 36.3084 3.54019 36.6981ZM13.501 11.9745C13.501 6.42162 18.0049 1.90363 23.5427 1.90363C29.0804 1.90363 33.5868 6.42162 33.5868 11.9745V14.1044H30.7358V11.6267C30.7358 7.65067 27.5096 4.41581 23.5427 4.41581C19.5758 4.41581 16.3532 7.65067 16.3532 11.6267V14.1044H13.5022V11.9745H13.501ZM18.1913 14.1044V11.6267C18.1913 8.6671 20.5911 6.25939 23.5414 6.25939C26.4918 6.25939 28.8952 8.6671 28.8952 11.6267V14.1044H18.1913ZM37.2533 33.5849C37.2533 34.4083 36.8143 34.954 36.5237 34.954H35.0559C35.2925 34.0187 35.4176 33.0404 35.4176 32.0326C35.4176 29.6187 34.7015 27.2946 33.3452 25.3109C32.0221 23.3739 30.1803 21.8843 28.0197 21.0018C27.5488 20.8101 27.0117 21.0375 26.8204 21.5082C26.6291 21.9802 26.8547 22.5173 27.3256 22.709C31.1233 24.2588 33.577 27.9177 33.577 32.0326C33.577 37.5805 29.0755 42.096 23.5414 42.096C18.0074 42.096 13.5059 37.5817 13.5059 32.0326C13.5059 27.9189 15.9608 24.2601 19.7609 22.709C20.2318 22.5173 20.4574 21.9789 20.2661 21.5082C20.0748 21.0363 19.5378 20.8101 19.0669 21.0018C16.9062 21.8843 15.0644 23.3739 13.7401 25.3109C12.3839 27.2958 11.6665 29.62 11.6665 32.0326C11.6665 33.0404 11.7928 34.0187 12.0282 34.954H10.5629C10.271 34.954 9.82959 34.4071 9.82959 33.5849V17.3172C9.82959 16.4937 10.271 15.948 10.5629 15.948H36.5224C36.8131 15.948 37.2521 16.4937 37.2521 17.3172V33.5849H37.2533ZM44.9578 36.6981C44.7701 36.8873 44.52 36.9906 44.2527 36.9906C43.9854 36.9906 43.7352 36.8873 43.5476 36.6981C43.1589 36.3084 43.1589 35.6743 43.5476 35.2846C43.7352 35.0954 43.9854 34.9921 44.2527 34.9921C44.52 34.9921 44.7689 35.0954 44.9578 35.2846C45.3465 35.6743 45.3465 36.3084 44.9578 36.6981Z" fill="#9E52FE"/>
</g>
<path d="M23.5426 21.9705H23.5475C24.0564 21.9705 24.4648 21.5576 24.4648 21.0487C24.4648 20.5399 24.0503 20.127 23.5426 20.127C23.035 20.127 22.6229 20.5399 22.6229 21.0487C22.6229 21.5576 23.035 21.9705 23.5426 21.9705Z" fill="#9E52FE"/>
</g>
<defs>
<clipPath id="clip0_890_583">
<rect width="47.0877" height="44" fill="white"/>
</clipPath>
</defs>
</svg>
