<svg width="25" height="24" viewBox="0 0 25 24" fill="none" xmlns="http://www.w3.org/2000/svg">
<g clip-path="url(#clip0_744_6848)">
<path d="M11.9505 24.0123C18.5506 24.0123 23.9011 18.6369 23.9011 12.0061C23.9011 5.37533 18.5506 0 11.9505 0C5.35044 0 0 5.37533 0 12.0061C0 18.6369 5.35044 24.0123 11.9505 24.0123Z" fill="url(#paint0_radial_744_6848)"/>
<path d="M11.9506 9.13267V11.8185C11.9506 11.9758 12.1186 12.0739 12.2551 11.9975L14.5363 10.6986C14.5995 10.6625 14.6771 10.6625 14.7403 10.7L16.9397 11.9946C17.0732 12.0739 17.0747 12.2673 16.9397 12.3482L12.393 15.073C12.268 15.148 12.2594 15.3284 12.3772 15.415L14.3524 16.864C14.4171 16.9116 14.5033 16.9159 14.5737 16.877L20.09 13.7596C20.1546 13.7235 20.1934 13.6543 20.1934 13.5807V10.5788C20.1934 10.5052 20.1532 10.4359 20.09 10.3998L14.7446 7.36762C14.6785 7.33009 14.5981 7.33298 14.5349 7.37339L12.0454 8.95804C11.9865 8.99556 11.9506 9.06051 11.9506 9.13123V9.13267Z" fill="url(#paint1_linear_744_6848)" stroke="url(#paint2_linear_744_6848)" stroke-width="0.4"/>
<path d="M3.7063 13.5836V10.6654C3.7063 10.5947 3.74365 10.5283 3.80398 10.4908L8.97839 7.28537C9.04303 7.24496 9.12491 7.24496 9.18956 7.28393L11.6518 8.75313C11.7854 8.8325 11.7854 9.02734 11.6518 9.10671L6.86237 11.9138C6.73021 11.9903 6.7259 12.1808 6.85519 12.263L8.98126 13.6355C9.04447 13.6759 9.12635 13.6788 9.19243 13.6413L11.6489 12.2529C11.7854 12.1764 11.9535 12.2746 11.9535 12.4319V15.1119C11.9535 15.1855 11.9132 15.2548 11.8486 15.2909L9.18668 16.7947C9.12348 16.8308 9.0459 16.8294 8.98413 16.7933L3.80973 13.7611C3.74652 13.725 3.70774 13.6572 3.70774 13.5836H3.7063Z" fill="url(#paint3_linear_744_6848)" stroke="url(#paint4_linear_744_6848)" stroke-width="0.4"/>
</g>
<defs>
<radialGradient id="paint0_radial_744_6848" cx="0" cy="0" r="1" gradientUnits="userSpaceOnUse" gradientTransform="translate(12.0066 11.9903) rotate(90) scale(12.0855 12.0296)">
<stop offset="0.76" stop-color="#330B5C" stop-opacity="0"/>
<stop offset="1" stop-color="#5F06B9"/>
</radialGradient>
<linearGradient id="paint1_linear_744_6848" x1="16.0734" y1="7.30844" x2="16.0734" y2="16.9419" gradientUnits="userSpaceOnUse">
<stop offset="0.3" stop-color="#710DEF"/>
<stop offset="1" stop-color="#3E0968"/>
</linearGradient>
<linearGradient id="paint2_linear_744_6848" x1="16.0734" y1="7.21752" x2="16.0734" y2="17.0328" gradientUnits="userSpaceOnUse">
<stop stop-color="#591795"/>
<stop offset="1" stop-color="#893FDD"/>
</linearGradient>
<linearGradient id="paint3_linear_744_6848" x1="7.82916" y1="7.21899" x2="7.82916" y2="16.851" gradientUnits="userSpaceOnUse">
<stop offset="0.3" stop-color="#710DEF"/>
<stop offset="1" stop-color="#3E0968"/>
</linearGradient>
<linearGradient id="paint4_linear_744_6848" x1="7.82916" y1="7.12806" x2="7.82916" y2="16.9419" gradientUnits="userSpaceOnUse">
<stop stop-color="#591795"/>
<stop offset="1" stop-color="#893FDD"/>
</linearGradient>
<clipPath id="clip0_744_6848">
<rect width="25" height="24" fill="white"/>
</clipPath>
</defs>
</svg>
