<svg width="13" height="13" viewBox="0 0 13 13" fill="none" xmlns="http://www.w3.org/2000/svg">
<path d="M6.5 12.5C9.81371 12.5 12.5 9.81371 12.5 6.5C12.5 3.18629 9.81371 0.5 6.5 0.5C3.18629 0.5 0.5 3.18629 0.5 6.5C0.5 9.81371 3.18629 12.5 6.5 12.5Z" stroke="white"/>
<path d="M6.49996 10.8334C6.68405 10.8334 6.83329 10.6841 6.83329 10.5C6.83329 10.3159 6.68405 10.1667 6.49996 10.1667C6.31586 10.1667 6.16663 10.3159 6.16663 10.5C6.16663 10.6841 6.31586 10.8334 6.49996 10.8334Z" fill="white"/>
<path d="M6.5 9.16669V8.59535C6.5 8.11935 6.738 7.67469 7.134 7.41069L7.53333 7.14402C7.83059 6.94558 8.07433 6.67689 8.24294 6.36176C8.41156 6.04662 8.49985 5.69476 8.5 5.33735V5.16669C8.5 4.63625 8.28929 4.12755 7.91421 3.75247C7.53914 3.3774 7.03043 3.16669 6.5 3.16669C5.96957 3.16669 5.46086 3.3774 5.08579 3.75247C4.71071 4.12755 4.5 4.63625 4.5 5.16669" stroke="white"/>
</svg>
