<svg width="17" height="17" viewBox="0 0 17 17" fill="none" xmlns="http://www.w3.org/2000/svg">
<path d="M8.5 10.75C8.94501 10.75 9.38002 10.618 9.75003 10.3708C10.12 10.1236 10.4084 9.77217 10.5787 9.36104C10.749 8.9499 10.7936 8.4975 10.7068 8.06105C10.62 7.62459 10.4057 7.22368 10.091 6.90901C9.77632 6.59434 9.37541 6.38005 8.93895 6.29323C8.5025 6.20642 8.0501 6.25097 7.63896 6.42127C7.22783 6.59157 6.87643 6.87996 6.62919 7.24997C6.38196 7.61998 6.25 8.05499 6.25 8.5C6.25 9.09674 6.48705 9.66903 6.90901 10.091C7.33097 10.5129 7.90326 10.75 8.5 10.75ZM8.5 6.75C8.84612 6.75 9.18446 6.85264 9.47225 7.04493C9.76003 7.23722 9.98434 7.51053 10.1168 7.8303C10.2492 8.15007 10.2839 8.50194 10.2164 8.84141C10.1489 9.18087 9.98218 9.4927 9.73744 9.73744C9.4927 9.98218 9.18087 10.1489 8.84141 10.2164C8.50194 10.2839 8.15007 10.2492 7.8303 10.1168C7.51053 9.98434 7.23722 9.76003 7.04493 9.47225C6.85264 9.18446 6.75 8.84612 6.75 8.5C6.75 8.03587 6.93437 7.59075 7.26256 7.26256C7.59075 6.93437 8.03587 6.75 8.5 6.75ZM15.5 4.25H1.5C1.4337 4.25 1.37011 4.27634 1.32322 4.32322C1.27634 4.37011 1.25 4.4337 1.25 4.5V12.5C1.25 12.5663 1.27634 12.6299 1.32322 12.6768C1.37011 12.7237 1.4337 12.75 1.5 12.75H15.5C15.5663 12.75 15.6299 12.7237 15.6768 12.6768C15.7237 12.6299 15.75 12.5663 15.75 12.5V4.5C15.75 4.4337 15.7237 4.37011 15.6768 4.32322C15.6299 4.27634 15.5663 4.25 15.5 4.25ZM1.75 7.20375C2.34668 7.0633 2.89238 6.75927 3.32583 6.32583C3.75927 5.89238 4.0633 5.34668 4.20375 4.75H12.7963C12.9367 5.34668 13.2407 5.89238 13.6742 6.32583C14.1076 6.75927 14.6533 7.0633 15.25 7.20375V9.79625C14.6533 9.9367 14.1076 10.2407 13.6742 10.6742C13.2407 11.1076 12.9367 11.6533 12.7963 12.25H4.20375C4.0633 11.6533 3.75927 11.1076 3.32583 10.6742C2.89238 10.2407 2.34668 9.9367 1.75 9.79625V7.20375ZM15.25 6.6875C14.7881 6.55762 14.3673 6.31122 14.0281 5.97194C13.6888 5.63266 13.4424 5.21189 13.3125 4.75H15.25V6.6875ZM3.6875 4.75C3.55762 5.21189 3.31122 5.63266 2.97194 5.97194C2.63266 6.31122 2.21189 6.55762 1.75 6.6875V4.75H3.6875ZM1.75 10.3125C2.21189 10.4424 2.63266 10.6888 2.97194 11.0281C3.31122 11.3673 3.55762 11.7881 3.6875 12.25H1.75V10.3125ZM13.3125 12.25C13.4424 11.7881 13.6888 11.3673 14.0281 11.0281C14.3673 10.6888 14.7881 10.4424 15.25 10.3125V12.25H13.3125Z" fill="white"/>
</svg>
