<svg width="26" height="26" viewBox="0 0 26 26" fill="none" xmlns="http://www.w3.org/2000/svg">
<circle cx="13" cy="13.0215" r="12" stroke="#9E52FE" stroke-width="0.564706"/>
<path d="M18.6828 8.20869C18.5597 8.11497 18.4111 8.0536 18.2529 8.03109C18.0948 8.00859 17.9329 8.02579 17.7846 8.08088L7.54656 11.8695C7.38112 11.9318 7.24027 12.0388 7.14271 12.1762C7.04515 12.3136 6.99549 12.475 7.00032 12.6389C7.00516 12.8028 7.06426 12.9615 7.16978 13.0939C7.27531 13.2263 7.42226 13.3261 7.59113 13.3801L9.80021 14.0831L10.9973 17.7109C10.9996 17.7182 11.007 17.7229 11.0105 17.7297C11.023 17.7586 11.0409 17.7852 11.0636 17.8083C11.0984 17.8436 11.1431 17.8694 11.1927 17.8832C11.1985 17.8853 11.2025 17.89 11.2082 17.8911H11.2116L11.2133 17.8916C11.2575 17.9003 11.3034 17.8981 11.3465 17.8853L11.3607 17.8827C11.402 17.8693 11.4393 17.8475 11.4699 17.8188C11.4733 17.8151 11.479 17.8146 11.4825 17.8114L13.2041 16.0693L15.7166 17.8528C15.8692 17.9623 16.0572 18.0215 16.2509 18.0215C16.6703 18.0215 17.032 17.7523 17.1183 17.3767L18.9822 8.98652C19.014 8.84409 19.003 8.69641 18.9502 8.55929C18.8975 8.42218 18.8051 8.3008 18.6828 8.20816M11.6219 14.7719L11.2179 16.5721L10.3751 14.0171L14.5549 12.0214L11.6996 14.6393C11.6601 14.6756 11.6331 14.7217 11.6219 14.7719ZM16.5583 17.2714C16.5476 17.3189 16.5237 17.3631 16.489 17.3997C16.4543 17.4363 16.4099 17.4641 16.36 17.4804C16.3114 17.4973 16.2588 17.5024 16.2073 17.4953C16.1559 17.4881 16.1073 17.4689 16.0663 17.4395L13.3447 15.5073C13.2878 15.467 13.2164 15.4479 13.1448 15.4537C13.0732 15.4595 13.0067 15.4899 12.9584 15.5387L11.7602 16.7492L12.1636 14.9541L16.2715 11.188C16.3196 11.1438 16.3488 11.0852 16.354 11.023C16.3591 10.9607 16.3398 10.8987 16.2996 10.8484C16.2593 10.798 16.2007 10.7624 16.1343 10.7482C16.068 10.7339 15.9983 10.7419 15.9378 10.7706L10.0162 13.598L7.77798 12.8846C7.71882 12.8664 7.66725 12.8318 7.63032 12.7857C7.5934 12.7396 7.57293 12.6841 7.5717 12.6269C7.56869 12.5691 7.58546 12.5118 7.61968 12.4632C7.6539 12.4145 7.70386 12.3769 7.76256 12.3556L17.9988 8.56696C18.0513 8.54677 18.1089 8.5403 18.1652 8.54825C18.2215 8.5562 18.2742 8.57827 18.3177 8.61201C18.3609 8.64384 18.3936 8.68612 18.4119 8.73407C18.4303 8.78201 18.4337 8.83372 18.4217 8.88334L16.5583 17.2714Z" fill="#9E52FE"/>
</svg>
