<svg width="22" height="23" viewBox="0 0 22 23" fill="none" xmlns="http://www.w3.org/2000/svg">
<g clip-path="url(#clip0_442_799)">
<path d="M-0.5 0.636009H28.4999V22.386H-0.5V0.636009Z" fill="#00008B"/>
<path d="M1.19921 0.636009L6.72732 4.73678L12.2328 0.636009H14V2.04069L8.56248 6.09615L14 10.129V11.511H12.1875L6.74998 7.45552L1.33515 11.511H-0.5V10.1516L4.91483 6.11881L-0.5 2.08601V0.636009H1.19921Z" fill="white"/>
<path d="M9.10622 7.0024L14 10.6047V11.511L7.86013 7.0024H9.10622ZM4.93748 7.45552L5.07342 8.24849L0.723434 11.511H-0.5L4.93748 7.45552ZM14 0.636009V0.703978L8.35857 4.96334L8.40388 3.96647L12.8672 0.636009H14ZM-0.5 0.636009L4.91483 4.6235H3.55546L-0.5 1.58757V0.636009Z" fill="#FF0000"/>
<path d="M4.96014 0.636009V11.511H8.58513V0.636009H4.96014ZM-0.5 4.261V7.88599H14V4.261H-0.5Z" fill="white"/>
<path d="M-0.5 5.00865V7.18365H14V5.00865H-0.5ZM5.68514 0.636009V11.511H7.86013V0.636009H5.68514Z" fill="#FF0000"/>
<path d="M23.3791 18.6114L22.4502 18.7292L22.5499 19.6581L21.8793 19.0056L21.2132 19.6627L21.3038 18.7338L20.3749 18.625L21.1588 18.1175L20.6649 17.3246L21.553 17.6191L21.8657 16.7355L22.1874 17.6146L23.071 17.311L22.5861 18.1085L23.3791 18.6114ZM23.2114 13.3008L23.3338 12.7118L22.8897 12.3039L23.4879 12.236L23.7371 11.6877L23.9863 12.236L24.5844 12.3039L24.1404 12.7118L24.2627 13.3008L23.7371 13.0018L23.2114 13.3008ZM18.4944 10.5821L17.5746 10.6818L17.6562 11.6016L17.0037 10.9446L16.333 11.5835L16.4418 10.6636L15.5265 10.5413L16.3104 10.0519L15.8346 9.25896L16.7091 9.56708L17.0354 8.70161L17.339 9.57614L18.218 9.29067L17.7241 10.0746L18.499 10.5821H18.4944ZM27.7291 9.09583L26.7821 9.21817L26.8863 10.1652L26.2021 9.49911L25.5224 10.1697L25.6175 9.21817L24.6705 9.10943L25.4725 8.58833L24.9696 7.77724L25.8758 8.08083L26.193 7.18365L26.5193 8.08083L27.421 7.76818L26.9225 8.5838L27.7291 9.09583ZM23.3746 5.31225L22.4366 5.41647L22.5227 6.35896L21.8566 5.68834L21.1724 6.34084L21.2811 5.40287L20.3432 5.276L21.1452 4.77756L20.6604 3.96647L21.553 4.27913L21.8838 3.39553L22.1919 4.28819L23.0891 3.99366L22.5861 4.79116L23.3746 5.31225ZM10.1026 18.113L8.02727 18.3577L8.23571 20.4375L6.74946 18.9694L5.25416 20.4285L5.47619 18.3486L3.40088 18.0858L5.16353 16.9621L4.07603 15.1768L6.05165 15.8564L6.76759 13.8899L7.46993 15.861L9.45008 15.1949L8.34899 16.9711L10.1071 18.1085L10.1026 18.113Z" fill="white"/>
</g>
<defs>
<clipPath id="clip0_442_799">
<rect y="0.510979" width="22" height="22" rx="11" fill="white"/>
</clipPath>
</defs>
</svg>
